<svg width="654" height="666" viewBox="0 0 654 666" fill="none" xmlns="http://www.w3.org/2000/svg">
<path fill-rule="evenodd" clip-rule="evenodd" d="M111.475 81.69C246.682 -37.6191 453.008 -24.7319 572.318 110.475C674.283 226.027 679.692 393.523 594.712 514.254C589.163 522.138 589.417 532.856 595.795 540.084L624.047 572.101C631.355 580.383 630.566 593.021 622.284 600.33L562.784 652.834C554.501 660.143 541.863 659.353 534.554 651.071L506.357 619.117C499.973 611.882 489.358 610.301 480.843 614.839C350.43 684.334 184.734 658.173 82.6902 542.533C-36.6193 407.326 -23.7318 200.999 111.475 81.69ZM174.626 243.184C165.704 233.073 149.528 234.558 144.167 246.932C114.328 315.808 124.731 398.704 177.682 458.71C230.633 518.716 311.589 539.353 383.643 518.317C396.588 514.537 400.074 498.672 391.152 488.56L174.626 243.184ZM480.536 409.468C489.469 419.591 505.666 418.087 511.007 405.688C540.639 336.889 530.176 254.192 477.325 194.298C424.474 134.405 343.721 113.732 271.77 134.573C258.802 138.329 255.294 154.213 264.227 164.336L480.536 409.468Z" fill="#E1B14E"/>
<path d="M205.177 529.461C205.177 540.507 214.131 549.461 225.177 549.461H272C283.046 549.461 292 558.415 292 569.461V645.661C292 656.707 283.046 665.661 272 665.661H20C8.9543 665.661 0 656.707 0 645.661V569.461C0 558.415 8.95431 549.461 20 549.461H66.1768C77.2225 549.461 86.1768 540.507 86.1768 529.461V21.6613C86.1768 10.6157 95.1311 1.66138 106.177 1.66138H185.177C196.222 1.66138 205.177 10.6157 205.177 21.6614V529.461Z" fill="white"/>
</svg>
