     <svg width="74" height="50" viewBox="0 0 74 50" fill="none"
                xmlns="http://www.w3.org/2000/svg">
                <mask id="mask0_1079_11914" style="mask-type:luminance" maskUnits="userSpaceOnUse" x="0" y="0"
                  width="74" height="50">
                  <path d="M73.5166 0.5H0.782227V49.5H73.5166V0.5Z" fill="white" />
                </mask>
                <g mask="url(#mask0_1079_11914)">
                  <path
                    d="M10.5981 10.959H9.73407V3.35184H10.5981V10.959ZM17.6616 8.89709C17.6616 10.2021 16.5681 11.0512 15.05 11.0512C13.8875 11.064 12.7656 10.6273 11.9209 9.83345L12.4579 9.20273C12.7992 9.55132 13.2076 9.82802 13.6589 10.0164C14.1101 10.2047 14.5948 10.3009 15.0842 10.2992C16.1093 10.2992 16.7878 9.75582 16.7878 9.00382C16.7878 8.29554 16.407 7.89283 14.7962 7.54837C13.0388 7.16511 12.2285 6.57808 12.2285 5.35065C12.2285 4.15234 13.2878 3.27422 14.7425 3.27422C15.7245 3.24598 16.6825 3.57945 17.4322 4.21056L16.944 4.87036C16.3325 4.34028 15.549 4.04741 14.7376 4.0456C13.7613 4.0456 13.1072 4.58897 13.1072 5.27303C13.1072 5.98619 13.5026 6.38887 15.1867 6.72847C16.8708 7.06808 17.6763 7.69877 17.6763 8.88254L17.6616 8.89709ZM25.3548 3.2257C24.8368 3.22171 24.3231 3.32098 23.8443 3.51767C23.3655 3.71435 22.9312 4.00444 22.5671 4.3708C22.203 4.73716 21.9165 5.17235 21.7246 5.65063C21.5327 6.12891 21.4392 6.64059 21.4497 7.1554V7.17967C21.4513 7.68935 21.5539 8.19371 21.7515 8.66404C21.9493 9.13428 22.2383 9.56127 22.6021 9.9205C22.9658 10.2798 23.3973 10.5643 23.8716 10.7579C24.3461 10.9515 24.8542 11.0503 25.3671 11.0487C25.8799 11.0471 26.3874 10.9451 26.8606 10.7486C27.3338 10.5521 27.7634 10.2649 28.1248 9.90335C28.4864 9.54183 28.7727 9.11307 28.9674 8.6416C29.1622 8.17013 29.2616 7.66509 29.26 7.1554C29.2726 6.64095 29.1804 6.12927 28.989 5.65112C28.7976 5.17297 28.5109 4.73822 28.1461 4.37298C27.7813 4.00773 27.346 3.71955 26.8664 3.52573C26.3867 3.33191 25.8726 3.23645 25.3548 3.24511V3.2257ZM28.3521 7.19907C28.3692 7.60143 28.3044 8.00307 28.1616 8.37999C28.0188 8.75683 27.801 9.10121 27.5211 9.39245C27.2413 9.6837 26.9052 9.91591 26.533 10.075C26.1608 10.2341 25.7601 10.3169 25.3548 10.3186C24.9473 10.315 24.5445 10.2301 24.1705 10.069C23.7965 9.90795 23.4589 9.67382 23.1776 9.38066C22.8962 9.0875 22.677 8.74121 22.5328 8.3623C22.3886 7.98343 22.3224 7.57961 22.3381 7.17481C22.3203 6.77228 22.3846 6.37035 22.5271 5.99315C22.6697 5.61597 22.8874 5.27131 23.1674 4.97992C23.4474 4.68852 23.7838 4.4564 24.1564 4.2975C24.5289 4.13861 24.9299 4.05623 25.3353 4.0553C25.7427 4.05825 26.1453 4.14252 26.5192 4.30308C26.8933 4.46365 27.231 4.69726 27.5123 4.99003C27.7937 5.28281 28.0131 5.62878 28.1573 6.00742C28.3015 6.38606 28.3678 6.78964 28.3521 7.19422V7.19907ZM19.0772 3.37125H19.9412V10.959H19.087L19.0772 3.37125ZM4.50107 11.0124L1.21094 3.35184H2.18723L2.67539 4.48708L4.92576 9.90619L5.14055 10.4253L5.05756 9.59083L7.61547 3.35184H8.54299L5.26747 11.0124H4.50107ZM36.2894 3.35184H37.1339V10.959H36.4457L31.0467 4.11837L31.5349 5.22937V10.959H30.6611V3.35184H31.4714L36.6458 9.89646L36.2894 8.965V3.35184Z"
                    fill="white" />
                  <path
                    d="M60.4929 11.7639H61.313V12.5692H60.5027L60.4929 11.7639ZM62.1135 11.7639H62.9239V12.5692H62.1135V11.7639ZM45.4237 2.54606H44.6134V1.75042H45.4237V2.54606ZM65.2427 8.17866C65.5664 8.40353 65.9286 8.56798 66.3117 8.66376C66.7314 8.76842 67.1627 8.82056 67.5955 8.81903H67.8103L68.0837 8.2514V9.04704C68.101 9.21639 68.0768 9.38743 68.013 9.54546C67.9492 9.70348 67.8478 9.84375 67.7175 9.9543C67.4139 10.1516 67.0546 10.2468 66.6924 10.2259C66.4676 10.2278 66.2434 10.205 66.0237 10.158C65.7878 10.0963 65.5576 10.0152 65.3354 9.91548L65.0864 10.6917C65.3558 10.7928 65.6314 10.8771 65.9113 10.9439C66.1478 11.002 66.3903 11.0313 66.6339 11.0313C66.9441 11.0595 67.2569 11.0246 67.5532 10.9286C67.8495 10.8327 68.1229 10.6778 68.357 10.4734C68.7285 10.062 68.9216 9.52149 68.894 8.9694V3.36111H67.5955C67.1311 3.35637 66.6692 3.42852 66.2287 3.57458C65.8424 3.69966 65.4831 3.89547 65.1694 4.15191C64.8763 4.39241 64.6409 4.69493 64.4805 5.03738C64.32 5.37983 64.2385 5.75356 64.2419 6.13131C64.2317 6.55431 64.3237 6.97358 64.5104 7.35389C64.6848 7.68554 64.9357 7.97148 65.2427 8.18831V8.17866ZM65.2427 5.33567C65.3609 5.09767 65.527 4.88632 65.7307 4.71468C65.9427 4.54367 66.1819 4.40919 66.4386 4.31686C66.6924 4.22634 66.9597 4.17879 67.2294 4.17616H68.5376L68.0788 4.40418V8.02339H67.2587C66.9675 8.02474 66.6778 7.98221 66.3995 7.89725C66.1455 7.81574 65.9077 7.69098 65.6966 7.52854C65.4907 7.37073 65.3237 7.1683 65.2084 6.93666C65.088 6.68533 65.0278 6.40966 65.0327 6.13131C65.0296 5.8546 65.095 5.58137 65.2231 5.33567H65.2427ZM47.0248 2.55577H46.2145V1.75042H47.0248V2.55577ZM70.9442 11.041C70.7213 11.0407 70.4995 11.0097 70.2852 10.9488L70.5 10.1775C70.5719 10.1988 70.6454 10.2151 70.7197 10.2259H70.9149C71.0449 10.2315 71.1746 10.2099 71.2957 10.1629C71.3938 10.1188 71.4744 10.0438 71.5251 9.9494C71.5903 9.83073 71.6317 9.70057 71.6472 9.56613C71.6749 9.37495 71.6879 9.18202 71.6862 8.98885V3.36111H72.4917V8.99857C72.4943 9.28323 72.4698 9.56751 72.4184 9.84757C72.3773 10.0779 72.2892 10.2975 72.1597 10.4928C72.0384 10.6712 71.8693 10.8123 71.6715 10.9003C71.4408 10.9999 71.1908 11.0479 70.9394 11.041H70.9442ZM68.8891 2.55577H67.1122V1.89596C67.0999 1.75738 67.1155 1.61775 67.1583 1.48527C67.201 1.3528 67.27 1.23016 67.3612 1.12458C67.4579 1.03925 67.5707 0.973863 67.693 0.932221C67.8154 0.890579 67.9448 0.87351 68.0739 0.882004H68.6353V1.46903H68.0788C68.0348 1.46353 67.9902 1.46669 67.9475 1.47835C67.9047 1.49 67.8648 1.50992 67.8298 1.53695C67.7815 1.60647 67.7591 1.69052 67.7664 1.77468V1.95418H68.8794L68.8891 2.55577ZM44.8379 10.9294H46.5171V10.3279C46.5171 10.3569 46.5514 10.386 46.5709 10.4103C46.6928 10.5882 46.8617 10.7293 47.0591 10.8179C47.2908 10.9198 47.5429 10.9678 47.7961 10.9586H62.9288V3.36111H62.1184V10.1532H47.8156C47.6857 10.1586 47.556 10.1372 47.4349 10.0901C47.3364 10.0449 47.2544 9.9703 47.2006 9.87667C47.1372 9.75754 47.0974 9.62746 47.0834 9.4934C47.0557 9.30222 47.0427 9.10921 47.0444 8.91604V3.36111H44.8575C44.358 3.35647 43.8626 3.45147 43.4007 3.6405C42.9388 3.82952 42.5198 4.10871 42.1684 4.46155C41.8171 4.81439 41.5404 5.23372 41.355 5.69469C41.1696 6.15566 41.0791 6.64892 41.0889 7.14527C41.0771 7.63961 41.1657 8.13124 41.3493 8.5908C41.5331 9.05033 41.8082 9.46828 42.1581 9.81978C42.5081 10.1712 42.9258 10.4489 43.3863 10.6362C43.8467 10.8236 44.3405 10.9167 44.8379 10.91V10.9294ZM41.9529 7.10646C41.9359 6.71899 41.9977 6.33208 42.1349 5.969C42.2721 5.60591 42.4818 5.27414 42.7513 4.99362C43.0207 4.71311 43.3445 4.48964 43.7031 4.33666C44.0617 4.18367 44.4477 4.10432 44.8379 4.10339H46.732L46.2438 4.35081V8.89667C46.2427 9.18148 46.2688 9.46576 46.3219 9.74567C46.3494 9.88409 46.3919 10.0191 46.4489 10.1483H44.8672C44.4729 10.1486 44.0827 10.0698 43.7199 9.91656C43.357 9.76336 43.029 9.53895 42.7555 9.25666C42.482 8.97445 42.2686 8.64026 42.1282 8.27414C41.9878 7.90797 41.9232 7.51742 41.9383 7.12587L41.9529 7.10646Z"
                    fill="white" />
                  <path
                    d="M4.21311 49.0515H3.61268L2.46065 47.5378L1.88951 48.12V49.0515H1.3916V45.8301H1.88951V47.5621L3.53946 45.8301H4.13501L2.79747 47.2079L4.21311 49.0515Z"
                    fill="white" />
                  <path d="M5.37487 45.8301H4.87695V49.0515H5.37487V45.8301Z" fill="white" />
                  <path
                    d="M9.18283 45.8301V49.0515H8.75814L6.85436 46.6112V49.0515H6.36621V45.8301H6.8446L8.69467 48.2025V45.8301H9.18283Z"
                    fill="white" />
                  <path
                    d="M13.0249 47.2913V48.6158C12.6483 48.9318 12.1706 49.1039 11.6777 49.101C11.4549 49.1119 11.2321 49.0766 11.0238 48.9974C10.8155 48.9181 10.626 48.7965 10.4676 48.6404C10.3091 48.4843 10.1851 48.2971 10.1035 48.0906C10.0219 47.8843 9.98447 47.6633 9.99351 47.4418C9.9909 47.2223 10.0324 47.0045 10.1155 46.8012C10.1988 46.5978 10.3219 46.413 10.4778 46.2576C10.6338 46.1022 10.8193 45.9793 11.0237 45.896C11.2281 45.8128 11.447 45.7709 11.6679 45.7729C12.1128 45.7497 12.5497 45.8974 12.8883 46.1852L12.5759 46.554C12.3199 46.3306 11.9888 46.2112 11.6483 46.2191C11.3402 46.2392 11.0521 46.3784 10.8459 46.6069C10.6397 46.8354 10.5317 47.1351 10.5451 47.4418C10.5335 47.601 10.5556 47.7608 10.6098 47.9111C10.664 48.0613 10.7493 48.1987 10.86 48.3143C10.9708 48.4298 11.1047 48.5212 11.253 48.5823C11.4014 48.6433 11.561 48.673 11.7216 48.6692C12.0209 48.6731 12.3135 48.5812 12.5564 48.4072V47.7231H11.6972V47.306L13.0249 47.2913Z"
                    fill="white" />
                  <path
                    d="M15.1188 45.831H13.9229V49.0524H15.1188C15.3422 49.0696 15.5668 49.0408 15.7784 48.9677C15.9901 48.8945 16.1843 48.7787 16.3487 48.6275C16.5132 48.4762 16.6444 48.2928 16.7341 48.0887C16.8239 47.8847 16.8702 47.6644 16.8702 47.4417C16.8702 47.219 16.8239 46.9987 16.7341 46.7947C16.6444 46.5906 16.5132 46.4072 16.3487 46.256C16.1843 46.1047 15.9901 45.9888 15.7784 45.9157C15.5668 45.8426 15.3422 45.8137 15.1188 45.831ZM15.1188 48.6109H14.4207V46.2725H15.1188C15.4308 46.2725 15.73 46.3957 15.9507 46.615C16.1713 46.8342 16.2952 47.1316 16.2952 47.4417C16.2952 47.7518 16.1713 48.0492 15.9507 48.2684C15.73 48.4877 15.4308 48.6109 15.1188 48.6109Z"
                    fill="white" />
                  <path
                    d="M19.1854 45.7724C18.9622 45.7658 18.7399 45.8043 18.5321 45.8856C18.3243 45.9669 18.1352 46.0892 17.9764 46.2453C17.8176 46.4013 17.6922 46.5878 17.608 46.7934C17.5239 46.999 17.4825 47.2194 17.4866 47.4413C17.4847 47.7756 17.5827 48.103 17.7682 48.3819C17.9536 48.6608 18.2183 48.8787 18.5285 49.008C18.8388 49.1373 19.1806 49.1721 19.5108 49.1081C19.841 49.044 20.1445 48.884 20.3831 48.6483C20.6217 48.4125 20.7845 48.1117 20.8508 47.7839C20.9171 47.4562 20.8841 47.1162 20.7557 46.8072C20.6275 46.4981 20.4098 46.2339 20.1302 46.0479C19.8506 45.862 19.5218 45.7627 19.1854 45.7627V45.7724ZM20.3569 47.4413C20.3635 47.5983 20.3381 47.7549 20.2822 47.9018C20.2262 48.0487 20.141 48.1828 20.0315 48.2961C19.9221 48.4095 19.7907 48.4997 19.6453 48.5611C19.4999 48.6227 19.3435 48.6543 19.1854 48.6542C19.0269 48.6523 18.8703 48.619 18.7249 48.5563C18.5795 48.4935 18.4481 48.4025 18.3386 48.2886C18.229 48.1748 18.1434 48.0404 18.0869 47.8932C18.0302 47.746 18.0038 47.5891 18.009 47.4316C18.001 47.2743 18.0253 47.117 18.0803 46.9692C18.1353 46.8216 18.2199 46.6864 18.329 46.5721C18.438 46.4578 18.5693 46.3667 18.7149 46.3043C18.8604 46.2419 19.0172 46.2095 19.1756 46.2091C19.3344 46.2109 19.4912 46.2441 19.6368 46.3068C19.7825 46.3695 19.9142 46.4605 20.0241 46.5743C20.1341 46.688 20.2201 46.8225 20.2772 46.9697C20.3344 47.1169 20.3615 47.2739 20.3569 47.4316V47.4413Z"
                    fill="white" />
                  <path
                    d="M24.881 45.8301V49.0515H24.3831V46.5773L23.2798 48.2171L22.1815 46.587V49.0515H21.6934V45.8301H22.2498L23.2896 47.4311L24.3245 45.8301H24.881Z"
                    fill="white" />
                  <path
                    d="M29.0408 45.7724C28.8173 45.7658 28.5949 45.8043 28.3868 45.8855C28.1787 45.9667 27.9893 46.0891 27.8301 46.245C27.6709 46.401 27.5451 46.5874 27.4604 46.793C27.3757 46.9986 27.3337 47.2191 27.3371 47.4413C27.3352 47.7754 27.433 48.1026 27.6183 48.3814C27.8036 48.6602 28.068 48.8781 28.3779 49.0076C28.6878 49.137 29.0294 49.172 29.3595 49.1084C29.6896 49.0448 29.9931 48.8852 30.2319 48.6499C30.4707 48.4147 30.6338 48.1144 30.7006 47.7869C30.7676 47.4595 30.7352 47.1197 30.6076 46.8105C30.4801 46.5014 30.2632 46.2368 29.9843 46.0503C29.7053 45.8638 29.377 45.7637 29.0408 45.7627V45.7724ZM30.2074 47.4413C30.214 47.5978 30.1887 47.7541 30.1331 47.9007C30.0775 48.0472 29.9927 48.1812 29.8837 48.2945C29.7749 48.4077 29.644 48.4979 29.4992 48.5598C29.3543 48.6215 29.1984 48.6537 29.0408 48.6542C28.8823 48.6523 28.7257 48.619 28.5803 48.5563C28.4349 48.4935 28.3036 48.4025 28.194 48.2886C28.0844 48.1748 27.9988 48.0404 27.9422 47.8932C27.8856 47.746 27.8591 47.5891 27.8643 47.4316C27.8564 47.2743 27.8807 47.117 27.9357 46.9692C27.9907 46.8216 28.0753 46.6864 28.1843 46.5721C28.2934 46.4578 28.4247 46.3667 28.5702 46.3043C28.7158 46.2419 28.8725 46.2095 29.031 46.2091C29.1895 46.2109 29.3461 46.2442 29.4915 46.3069C29.6369 46.3697 29.7683 46.4606 29.8778 46.5746C29.9874 46.6884 30.073 46.8229 30.1296 46.97C30.1862 47.1172 30.2126 47.2741 30.2074 47.4316V47.4413Z"
                    fill="white" />
                  <path
                    d="M32.0478 46.2716V47.2613H33.7269V47.7028H32.0478V49.0515H31.5498V45.8301H33.9418V46.2716H32.0478Z"
                    fill="white" />
                  <path
                    d="M38.6859 48.1549C38.6859 48.7274 38.2368 49.1252 37.5387 49.1252C37.0532 49.1283 36.583 48.9559 36.2158 48.64L36.5087 48.2908C36.7942 48.5511 37.166 48.6979 37.5534 48.7031C37.939 48.7031 38.188 48.5237 38.188 48.218C38.188 47.9123 38.0074 47.8056 37.4021 47.6698C36.7089 47.4999 36.3281 47.301 36.3281 46.6995C36.3346 46.5662 36.3686 46.4356 36.428 46.316C36.4875 46.1963 36.5711 46.0902 36.6737 46.0041C36.7763 45.9181 36.8958 45.8539 37.0244 45.8158C37.1531 45.7777 37.2883 45.7663 37.4216 45.7826C37.8365 45.7732 38.2418 45.9069 38.5687 46.1609L38.3051 46.5345C38.0504 46.3332 37.7371 46.2192 37.4118 46.2095C37.0652 46.2095 36.826 46.3889 36.826 46.6558C36.826 46.9227 37.0018 47.0633 37.651 47.2186C38.3979 47.3981 38.6859 47.66 38.6859 48.1549Z"
                    fill="white" />
                  <path
                    d="M41.0395 45.8066H40.5514L39.1211 49.0523H39.6093L39.951 48.2518H41.5863L41.9231 49.0523H42.4454L41.0395 45.8066ZM40.1511 47.8248L40.7905 46.3694L41.4301 47.8248H40.1511Z"
                    fill="white" />
                  <path
                    d="M45.6919 45.83V47.6639C45.718 47.8544 45.7009 48.0484 45.6417 48.2315C45.5824 48.4146 45.4826 48.5821 45.3496 48.7218C45.2166 48.8615 45.0537 48.9696 44.873 49.0385C44.6923 49.1073 44.4984 49.1349 44.3055 49.1193C44.1167 49.1359 43.9266 49.1103 43.7491 49.0445C43.5715 48.9787 43.4109 48.8744 43.2791 48.7392C43.1471 48.6039 43.0473 48.4411 42.9867 48.2627C42.9262 48.0842 42.9064 47.8945 42.9289 47.7076V45.8446H43.4171V47.6833C43.4171 48.3091 43.7393 48.6536 44.3055 48.6536C44.8718 48.6536 45.1842 48.2995 45.1842 47.6833V45.8203L45.6919 45.83Z"
                    fill="white" />
                  <path
                    d="M47.8298 45.831H46.6338V49.0524H47.8298C48.0532 49.0696 48.2777 49.0408 48.4894 48.9677C48.7011 48.8945 48.8952 48.7787 49.0597 48.6275C49.2241 48.4762 49.3554 48.2928 49.4451 48.0887C49.5348 47.8847 49.5811 47.6644 49.5811 47.4417C49.5811 47.219 49.5348 46.9987 49.4451 46.7947C49.3554 46.5906 49.2241 46.4072 49.0597 46.256C48.8952 46.1047 48.7011 45.9888 48.4894 45.9157C48.2777 45.8426 48.0532 45.8137 47.8298 45.831ZM47.8298 48.6109H47.1269V46.2725H47.8298C48.1418 46.2725 48.441 46.3957 48.6616 46.615C48.8823 46.8342 49.0062 47.1316 49.0062 47.4417C49.0062 47.7518 48.8823 48.0492 48.6616 48.2684C48.441 48.4877 48.1418 48.6109 47.8298 48.6109Z"
                    fill="white" />
                  <path d="M50.8857 45.8301H50.3877V49.0515H50.8857V45.8301Z" fill="white" />
                  <path
                    d="M55.2592 45.8066H54.7712L53.3408 49.0523H53.829L54.1707 48.2518H55.806L56.1429 49.0523H56.6652L55.2592 45.8066ZM54.3708 47.8248L55.0103 46.3694L55.6498 47.8248H54.3708Z"
                    fill="white" />
                  <path
                    d="M59.1645 47.8206H59.2231C59.4443 47.7723 59.6417 47.6491 59.7815 47.4721C59.9213 47.2951 59.9948 47.0753 59.9895 46.8504C59.9975 46.5936 59.9028 46.3441 59.726 46.1566C59.4689 45.9339 59.134 45.8206 58.7936 45.8413H57.3291V49.0626H57.8173V47.8983H58.6081L59.4135 49.0335H59.9993L59.1645 47.8206ZM57.8514 47.4714V46.273H58.7447C59.2329 46.273 59.4819 46.4865 59.4819 46.8649C59.4819 47.2434 59.1939 47.4714 58.7496 47.4714H57.8514Z"
                    fill="white" />
                  <path
                    d="M62.5473 45.8066H62.0592L60.6289 49.0523H61.1171L61.4588 48.2518H63.0941L63.4309 49.0523H63.9532L62.5473 45.8066ZM61.654 47.8248L62.2935 46.3694L62.9378 47.8248H61.654Z"
                    fill="white" />
                  <path
                    d="M66.6821 47.4179L66.5796 47.3839L66.6723 47.3354C66.8103 47.2784 66.9276 47.1811 67.0087 47.0563C67.0898 46.9315 67.1308 46.7852 67.1263 46.6368C67.1297 46.5391 67.1128 46.4417 67.0766 46.3507C67.0406 46.2597 66.986 46.1771 66.9164 46.108C66.6831 45.9112 66.3821 45.8121 66.0768 45.8315H64.6123V49.0529H66.1109C66.8578 49.0529 67.302 48.7278 67.302 48.1893C67.3063 48.0073 67.2453 47.8298 67.1299 47.6885C67.0145 47.5472 66.8524 47.4512 66.6723 47.4179H66.6821ZM65.1005 46.2584H65.9889C66.3843 46.2584 66.6186 46.433 66.6186 46.7435C66.6186 47.054 66.3745 47.2287 65.945 47.2287H65.1005V46.2584ZM66.1158 48.6259H65.1005V47.6556H66.0768C66.7113 47.6556 66.8041 47.9612 66.8041 48.1408C66.8041 48.4707 66.5552 48.6259 66.1158 48.6259Z"
                    fill="white" />
                  <path d="M68.6395 45.8301H68.1416V49.0515H68.6395V45.8301Z" fill="white" />
                  <path
                    d="M71.2173 45.8066H70.7292L69.3037 49.0523H69.7919L70.1336 48.2518H71.7689L72.1057 49.0523H72.6281L71.2173 45.8066ZM70.3289 47.8248L70.9683 46.3694L71.6127 47.8248H70.3289Z"
                    fill="white" />
                  <path
                    d="M52.7404 38.5791H52.2523V39.0642H52.7404V38.5791ZM46.8826 42.7417H47.3708V38.5791H46.8826V42.7417ZM6.15136 39.593H5.66321V42.2759H3.80825V39.593H3.09066C2.8225 39.5896 2.55552 39.629 2.29986 39.7095C2.07905 39.7807 1.87371 39.8926 1.69455 40.0394C1.53172 40.1722 1.39869 40.3375 1.30403 40.5246C1.21228 40.7205 1.16559 40.9342 1.16735 41.1504C1.16206 41.3955 1.2156 41.6382 1.32356 41.8587C1.42555 42.0494 1.56895 42.2151 1.74337 42.3438C1.92841 42.4758 2.1372 42.5714 2.35843 42.6252C2.5971 42.6897 2.84334 42.7224 3.09066 42.7223H6.15136V39.593ZM3.36402 42.2759H2.90517C2.73965 42.2768 2.57498 42.2523 2.41701 42.2031C2.27034 42.154 2.13329 42.0802 2.01185 41.9848C1.89852 41.8886 1.80701 41.7695 1.74337 41.6355C1.67158 41.4841 1.63807 41.3176 1.64574 41.1504C1.64352 40.9919 1.6804 40.8353 1.75313 40.6943C1.82207 40.5582 1.91845 40.4377 2.03626 40.3402C2.15574 40.2407 2.29327 40.165 2.44142 40.117C2.59787 40.0607 2.7632 40.0328 2.92957 40.0346H3.38843L3.36402 42.2759ZM4.85776 43.7653H5.34592V43.2802H4.85776V43.7653ZM3.82288 38.5791H3.33474V39.0642H3.82288V38.5791ZM32.3162 38.5791H31.828V39.0642H32.3162V38.5791ZM5.66321 43.7653H6.15136V43.2802H5.66321V43.7653ZM33.1314 38.5791H32.6433V39.0642H33.1314V38.5791ZM51.9252 38.5791H51.4371V39.0642H51.9252V38.5791ZM3.00768 38.5791H2.51952V39.0642H3.00768V38.5791ZM34.6886 43.7653H35.1768V43.2802H34.6886V43.7653ZM37.681 39.593H37.1928V42.2759H35.4404V39.593H34.9522V42.2759H33.0973V39.593H32.365C32.0952 39.5897 31.8267 39.6291 31.5693 39.7095C31.349 39.7817 31.1438 39.8936 30.964 40.0394C30.8026 40.1724 30.6712 40.3377 30.5784 40.5246C30.4867 40.7205 30.44 40.9342 30.4417 41.1504C30.4339 41.3957 30.4876 41.6391 30.5979 41.8587C30.698 42.0506 30.8418 42.2167 31.0178 42.3438C31.201 42.4758 31.4082 42.5714 31.6279 42.6252C31.8682 42.69 32.1161 42.7227 32.365 42.7223H37.681V39.593ZM32.6677 42.2759H32.204C32.0385 42.2762 31.8739 42.2516 31.7158 42.2031C31.5711 42.153 31.4358 42.0792 31.3155 41.9848C31.2008 41.8887 31.1076 41.7697 31.0421 41.6355C30.9728 41.4833 30.9394 41.3174 30.9445 41.1504C30.9423 40.9919 30.9792 40.8353 31.0519 40.6943C31.1241 40.559 31.222 40.4387 31.3399 40.3402C31.4594 40.2407 31.5969 40.165 31.7451 40.117C31.9015 40.0606 32.0668 40.0326 32.2332 40.0346H32.6969L32.6677 42.2759ZM35.5038 43.7653H35.992V43.2802H35.5038V43.7653ZM9.14371 40.0006C9.02672 39.8707 8.8837 39.7667 8.72392 39.6949C8.54606 39.6222 8.35479 39.5875 8.16254 39.593H7.82084V40.0782H8.226C8.33753 40.078 8.44768 40.1029 8.54821 40.1509C8.64445 40.1946 8.72951 40.2593 8.79711 40.3402C8.8625 40.4176 8.90928 40.5089 8.93385 40.607C8.96096 40.7215 8.97412 40.8387 8.9729 40.9563V42.3002H6.8006V42.7853H9.45616V40.9126C9.45478 40.7483 9.43021 40.585 9.38289 40.4275C9.33688 40.2792 9.26047 40.1421 9.15833 40.0248L9.14371 40.0006ZM45.0765 42.3002H43.0946L43.9097 40.3596C43.7841 40.2501 43.6521 40.148 43.5144 40.0539C43.3763 39.9604 43.231 39.8776 43.08 39.8065C42.9366 39.7344 42.7861 39.6775 42.6308 39.6367C42.4845 39.5968 42.3336 39.5756 42.1817 39.5736C42.0283 39.5755 41.8758 39.5967 41.7277 39.6367C41.5801 39.6775 41.4364 39.7311 41.2982 39.7968C41.1455 39.8667 40.9999 39.9512 40.8637 40.0491C40.7289 40.1429 40.6001 40.2449 40.4781 40.3547L41.2982 42.2953H39.5409V39.593H39.0527V42.8387C39.0587 42.9502 39.0587 43.0619 39.0527 43.1735C39.0418 43.25 39.0169 43.324 38.9794 43.3917C38.9482 43.444 38.9024 43.4861 38.8477 43.513C38.7777 43.5402 38.703 43.5534 38.628 43.5518H38.5157L38.3888 43.5227L38.2668 43.9691C38.391 44.0018 38.519 44.0181 38.6475 44.0176C38.7915 44.0228 38.9349 43.9963 39.0673 43.9399C39.1819 43.8788 39.2779 43.7883 39.3456 43.678C39.4184 43.5658 39.4681 43.4406 39.492 43.3093C39.5224 43.1493 39.5371 42.9869 39.536 42.8241V42.7271H45.5402V38.5791H45.0521L45.0765 42.3002ZM41.7717 42.3002L41.0394 40.5197C41.203 40.3791 41.3895 40.2675 41.5911 40.1897C41.7805 40.1218 41.9804 40.0874 42.1817 40.0879C42.396 40.0878 42.6081 40.129 42.8066 40.2092C42.998 40.2838 43.176 40.3887 43.3338 40.5197L42.6015 42.3002H41.7717ZM37.2075 43.7896H37.6956V43.3044H37.2075V43.7896ZM71.9931 42.7659H72.4812V38.5791H71.9931V42.7659ZM70.1674 42.2807H68.5662C68.6642 42.0659 68.7141 41.8325 68.7127 41.5967C68.7142 41.367 68.6694 41.1394 68.5809 40.9272C68.4959 40.728 68.3733 40.5468 68.2196 40.3936C68.0667 40.2393 67.8841 40.1172 67.6827 40.0346C67.4693 39.9465 67.2402 39.902 67.009 39.9036C66.7836 39.9008 66.5604 39.9471 66.355 40.0394C66.1568 40.1228 65.9776 40.2449 65.8278 40.3984C65.631 40.601 65.4875 40.8486 65.41 41.1194C65.3326 41.3902 65.3234 41.6757 65.3835 41.9508C65.4066 42.0639 65.441 42.1745 65.4861 42.2807H64.0216C64.1172 42.0651 64.167 41.8323 64.168 41.5967C64.1672 41.3673 64.1225 41.14 64.0362 40.9272C63.9512 40.728 63.8286 40.5468 63.675 40.3936C63.522 40.2393 63.3394 40.1172 63.138 40.0346C62.9245 39.9465 62.6955 39.902 62.4644 39.9036C62.239 39.9008 62.0157 39.9471 61.8102 40.0394C61.6121 40.1228 61.4329 40.2449 61.2831 40.3984C61.0863 40.601 60.9428 40.8486 60.8654 41.1194C60.7879 41.3902 60.7788 41.6757 60.8389 41.9508C60.8619 42.0639 60.8963 42.1745 60.9413 42.2807H59.4769V38.5791H58.9887V42.2759H57.5243V41.5676C57.5243 41.3955 57.5014 41.2243 57.456 41.0582C57.4127 40.9084 57.3378 40.7695 57.2363 40.6507C57.1241 40.5211 56.9839 40.4183 56.8262 40.3498C56.6435 40.2764 56.4472 40.2417 56.2502 40.248H54.1854L55.064 38.5791H54.5759L53.6777 40.2431C53.6891 40.3335 53.7137 40.4218 53.7509 40.5051C53.7854 40.5812 53.8315 40.6516 53.8876 40.7137H56.2698C56.3999 40.7115 56.5292 40.7346 56.6505 40.7816C56.7499 40.8201 56.8386 40.8816 56.9092 40.9612C56.9755 41.038 57.0224 41.1295 57.0459 41.228C57.0682 41.3399 57.0796 41.4536 57.0801 41.5676V42.2759H52.7648V39.593H52.0277C51.7595 39.5893 51.4925 39.6287 51.2369 39.7095C51.0151 39.7817 50.8083 39.8935 50.6267 40.0394C50.4666 40.1737 50.3355 40.3387 50.2411 40.5246C50.1494 40.7205 50.1027 40.9342 50.1044 41.1504C50.0991 41.3955 50.1527 41.6382 50.2606 41.8587C50.3626 42.0494 50.506 42.2151 50.6804 42.3438C50.8641 42.475 51.0712 42.5705 51.2906 42.6252C51.5309 42.69 51.7788 42.7227 52.0277 42.7223H61.3026C61.4553 42.8851 61.6396 43.0154 61.8444 43.1055C62.0579 43.1999 62.2893 43.2479 62.5229 43.2462C62.761 43.249 62.997 43.2027 63.2161 43.1104C63.4287 43.0218 63.62 42.8895 63.7775 42.7223H65.8278C65.9805 42.8851 66.1648 43.0154 66.3696 43.1055C66.5829 43.2005 66.8143 43.2485 67.0481 43.2462C67.2876 43.2486 67.5251 43.2023 67.7462 43.1104C67.9566 43.0204 68.146 42.8883 68.3026 42.7223H70.6751V38.5791H70.1869L70.1674 42.2807ZM52.2766 42.2807H51.8178C51.6523 42.2817 51.4877 42.2571 51.3296 42.208C51.183 42.1589 51.0459 42.085 50.9245 41.9897C50.8112 41.8934 50.7197 41.7744 50.6561 41.6404C50.5871 41.4964 50.5512 41.339 50.5512 41.1795C50.5512 41.02 50.5871 40.8626 50.6561 40.7186C50.7282 40.5833 50.826 40.463 50.944 40.3644C51.0635 40.265 51.201 40.1893 51.3492 40.1413C51.5057 40.085 51.671 40.0571 51.8373 40.0587H52.2962L52.2766 42.2807ZM63.6213 42.077C63.56 42.2209 63.4705 42.3513 63.3577 42.4603C63.2466 42.5705 63.1136 42.6564 62.9671 42.7126C62.8116 42.7728 62.6459 42.8024 62.479 42.7998C62.3116 42.8034 62.1453 42.772 61.9909 42.7077C61.8483 42.6479 61.7201 42.5586 61.615 42.4457C61.5037 42.3332 61.4161 42.1997 61.3573 42.053C61.2987 41.9064 61.2701 41.7496 61.2733 41.5918C61.2714 41.4261 61.3012 41.2615 61.3612 41.1067C61.4201 40.9636 61.5044 40.8321 61.6101 40.7186C61.7179 40.6088 61.8454 40.5199 61.986 40.4566C62.1401 40.3909 62.3064 40.3578 62.4742 40.3596C62.6414 40.3579 62.8073 40.3893 62.9622 40.4517C63.1066 40.5121 63.2388 40.5974 63.3528 40.704C63.4625 40.8163 63.5503 40.9479 63.6115 41.0921C63.6725 41.2467 63.704 41.4112 63.7043 41.5773C63.7049 41.7439 63.6718 41.9089 63.6067 42.0625L63.6213 42.077ZM68.1318 42.0625C68.0706 42.2064 67.9809 42.3367 67.8682 42.4457C67.7571 42.5559 67.6241 42.6418 67.4777 42.698C67.3222 42.7583 67.1564 42.7879 66.9895 42.7853C66.8221 42.7889 66.6558 42.7575 66.5014 42.6931C66.3595 42.6321 66.2315 42.543 66.1255 42.4312C66.0142 42.3186 65.9266 42.1852 65.8679 42.0385C65.8092 41.8919 65.7806 41.7351 65.7838 41.5773C65.7819 41.4115 65.8118 41.2468 65.8716 41.0921C65.9324 40.9499 66.0166 40.8188 66.1206 40.704C66.2284 40.5942 66.3559 40.5053 66.4965 40.442C66.6506 40.3763 66.8169 40.3433 66.9846 40.345C67.1519 40.3433 67.3178 40.3746 67.4728 40.4372C67.617 40.4975 67.7493 40.5829 67.8633 40.6895C67.973 40.8018 68.0608 40.9334 68.122 41.0776C68.2475 41.389 68.2475 41.7365 68.122 42.0479L68.1318 42.0625ZM25.3503 42.2517H24.6132C24.3924 42.2617 24.172 42.2219 23.9688 42.1352C23.8139 42.0586 23.6861 41.9367 23.6028 41.7859C23.6303 41.6437 23.6434 41.499 23.6418 41.3541V39.8841H23.1781V41.4512C23.1896 41.6846 23.1111 41.9137 22.9583 42.0916C22.8744 42.1764 22.7728 42.2421 22.6607 42.284C22.5485 42.3258 22.4286 42.343 22.3092 42.3341C22.181 42.3366 22.0535 42.3151 21.9332 42.271C21.8261 42.2304 21.7269 42.1713 21.6404 42.0964C21.5621 42.0226 21.4977 41.9355 21.45 41.8393C21.4019 41.7408 21.3753 41.6333 21.3719 41.5239V39.8841H20.8837V41.4899C20.8879 41.6127 20.8663 41.735 20.8203 41.849C20.7814 41.9394 20.7233 42.0205 20.6501 42.0867C20.5767 42.1528 20.49 42.2025 20.3956 42.2323C20.299 42.2613 20.1987 42.276 20.0978 42.2759H19.2191V39.8841H18.731V42.2759H16.2902L17.1103 40.3353C16.9834 40.2286 16.8516 40.1267 16.7101 40.0297C16.573 39.9372 16.4294 39.8545 16.2805 39.7823C16.1372 39.7102 15.9866 39.6532 15.8314 39.6125C15.5363 39.5285 15.2234 39.5285 14.9283 39.6125C14.7725 39.6545 14.6207 39.7097 14.4743 39.7774C14.3232 39.8473 14.1793 39.9318 14.0448 40.0297C13.9074 40.1222 13.777 40.2244 13.6542 40.3353L14.4792 42.2759H12.8732V39.593H12.1264C11.8578 39.5893 11.5904 39.6302 11.3355 39.7143C11.1149 39.7883 10.9098 39.9017 10.7302 40.0491C10.5639 40.1796 10.4288 40.3454 10.3348 40.5342C10.2407 40.7313 10.1923 40.9468 10.1932 41.1649C10.1874 41.4101 10.2409 41.653 10.3494 41.8732C10.449 42.0655 10.5928 42.2318 10.7693 42.3584C10.9546 42.4889 11.1634 42.5828 11.3843 42.6349C11.6269 42.6956 11.8761 42.7266 12.1264 42.7271H12.4046V42.8581C12.4141 42.9557 12.4 43.0542 12.3635 43.1454C12.3269 43.2365 12.2691 43.3176 12.1946 43.382C12.0196 43.4953 11.8125 43.5497 11.604 43.5373C11.4741 43.5388 11.3446 43.5242 11.2184 43.4936C11.0828 43.4599 10.9505 43.4144 10.823 43.3577L10.6814 43.8041C10.8571 43.8672 11.0182 43.9157 11.1696 43.9497C11.3054 43.9825 11.4447 43.9988 11.5844 43.9982C11.7605 44.0123 11.9376 43.9912 12.1052 43.9362C12.2729 43.8812 12.4278 43.7934 12.5608 43.678C12.6684 43.5613 12.7516 43.4243 12.8052 43.2751C12.8588 43.126 12.882 42.9677 12.8732 42.8096V42.7271H20.1222C20.3316 42.7308 20.5384 42.6806 20.7226 42.5816C20.896 42.4895 21.0436 42.3562 21.1522 42.1935C21.2632 42.3758 21.4218 42.525 21.6111 42.6252C21.8267 42.7349 22.067 42.7883 22.3092 42.7805C22.5545 42.789 22.7984 42.7408 23.0218 42.6397C23.2167 42.5423 23.3756 42.386 23.4758 42.1935C23.5165 42.2626 23.5639 42.3276 23.6174 42.3875C23.679 42.4575 23.7536 42.5152 23.837 42.5573C23.9382 42.6125 24.0467 42.6533 24.1592 42.6786C24.2699 42.7028 24.3827 42.7158 24.496 42.7174H25.8434V38.5791H25.3552L25.3503 42.2517ZM12.3802 42.2517H11.892C11.7265 42.2523 11.5619 42.2277 11.4038 42.1789C11.2562 42.1344 11.1186 42.0619 10.9987 41.9654C10.8844 41.8727 10.7913 41.7569 10.7253 41.6258C10.656 41.4736 10.6226 41.3076 10.6277 41.1407C10.6255 40.9822 10.6623 40.8257 10.7351 40.6846C10.8057 40.5468 10.9037 40.4247 11.0231 40.3256C11.1447 40.2281 11.2816 40.1511 11.4283 40.0976C11.585 40.043 11.7504 40.0166 11.9164 40.0199H12.4046L12.3802 42.2517ZM14.9527 42.2517L14.2254 40.4712C14.3874 40.3286 14.5744 40.2167 14.7769 40.1413C14.9663 40.073 15.1663 40.0385 15.3676 40.0394C15.5818 40.0397 15.7939 40.0809 15.9925 40.1607C16.1824 40.2353 16.3588 40.3401 16.5148 40.4712L15.7874 42.2517H14.9527ZM27.1565 42.7368H27.6446V38.5791H27.1565V42.7368Z"
                    fill="white" />
                  <path
                    d="M63.4501 15.0537C57.729 15.0537 53.5748 19.3424 53.5748 24.5772V24.6305C53.5748 29.8653 57.6801 34.1006 63.3964 34.1006C69.1126 34.1006 73.2668 29.8119 73.2668 24.5772V24.5238C73.2668 19.2891 69.1663 15.0537 63.4501 15.0537ZM69.0053 24.6305C69.0053 27.784 66.7304 30.365 63.4501 30.365C60.1697 30.365 57.8364 27.7355 57.8364 24.5772V24.5238C57.8364 21.3655 60.116 18.7893 63.3964 18.7893C66.6768 18.7893 69.0053 21.4189 69.0053 24.5772V24.6305ZM7.8156 30.2874H14.8792V33.7853H1.16699V30.5784L7.33721 25.5523C9.63639 23.6554 10.5394 22.6414 10.5394 21.1326C10.5394 19.6238 9.50463 18.736 8.04991 18.736C6.59522 18.736 5.63845 19.5268 4.26675 21.2103L1.40619 18.9349C3.23187 16.4606 5.00385 15.1216 8.31351 15.1216C12.1504 15.1216 14.6937 17.3582 14.6937 20.8027V20.8561C14.6937 23.9319 13.1071 25.4602 9.8121 27.9829L5.77513 31.0636L4.98921 31.6652L7.8156 30.2874ZM52.5252 28.0217V28.0751C52.5252 31.5488 49.982 34.1006 45.8523 34.1006C42.5182 34.1006 40.2142 32.7859 38.6276 30.9181L41.4345 28.2594C42.7037 29.681 44.0266 30.4717 45.906 30.4717C47.4436 30.4717 48.5273 29.6033 48.5273 28.2352V28.1818C48.5273 26.6827 47.1751 25.8385 44.9004 25.8385H43.2065L42.5719 23.2624L48.5176 17.3193L46.1354 18.8427H39.7114V15.3691H52.2324V18.4206L47.5462 22.8646C50.0845 23.3013 52.5252 24.6014 52.5252 28.0217Z"
                    fill="white" />
                  <path
                    d="M32.6623 25.4352C32.4606 25.3189 32.246 25.2261 32.0228 25.1587C31.4522 24.9782 30.8469 24.9333 30.2557 25.0277C29.9943 25.0689 29.7376 25.1355 29.4893 25.2266H29.4112C29.2746 25.28 29.1427 25.3382 29.0061 25.4061C28.8694 25.474 28.7766 25.5274 28.6595 25.6002C28.4008 25.7554 28.1421 25.9349 27.8882 26.1241C27.6904 24.7678 27.6641 23.3923 27.8101 22.0295C28.4203 22.4127 28.2494 23.4849 28.1225 23.7906C28.3746 23.5002 28.532 23.1407 28.5739 22.7595C28.6157 22.3783 28.54 21.9934 28.3568 21.6559C28.4577 21.7398 28.5494 21.8341 28.6301 21.9373C28.8328 22.1994 28.9533 22.5149 28.9767 22.8445C28.989 22.9817 28.989 23.1197 28.9767 23.2569C28.9792 23.2875 28.9792 23.3184 28.9767 23.3491C29.104 23.102 29.1704 22.8285 29.1704 22.551C29.1704 22.2735 29.104 22 28.9767 21.7529C28.8878 21.574 28.7709 21.4102 28.6301 21.2678L28.4935 21.1368L28.6253 21.1756C28.7493 21.2177 28.8662 21.2782 28.9719 21.3551C29.1926 21.5202 29.3618 21.7438 29.46 22.0004C29.5393 22.1946 29.5807 22.402 29.582 22.6116C29.6488 22.4132 29.6725 22.2029 29.6515 21.9946C29.6304 21.7864 29.5652 21.5849 29.46 21.4036C29.3386 21.2056 29.1712 21.0392 28.9719 20.9185C28.8639 20.8515 28.7473 20.7993 28.6253 20.7632C28.5709 20.7468 28.5154 20.7338 28.4593 20.7245H28.6204C28.7366 20.7232 28.8526 20.733 28.967 20.7535C29.1412 20.782 29.3075 20.8465 29.4552 20.9427C29.5876 21.0315 29.6979 21.1494 29.7773 21.2872C29.7547 21.0376 29.6357 20.8064 29.4454 20.6419C29.3037 20.5227 29.1368 20.4365 28.9572 20.3896C28.8444 20.3573 28.728 20.3394 28.6106 20.3363C28.4637 20.3335 28.3176 20.3599 28.1811 20.4139C28.2881 20.2652 28.4431 20.1573 28.6204 20.1083C28.7323 20.0731 28.8498 20.0584 28.967 20.0646C29.0647 20.07 29.1607 20.093 29.2501 20.1326C29.1683 20.039 29.0709 19.9603 28.9621 19.8996C28.766 19.7867 28.5331 19.7544 28.3133 19.8097C28.0935 19.865 27.9042 20.0035 27.7857 20.1956C27.7418 20.1205 27.7027 20.0427 27.6685 19.9627C27.5805 19.7627 27.5181 19.5524 27.483 19.3369C27.4479 19.5546 27.3839 19.7667 27.2927 19.9676C27.2601 20.0459 27.2226 20.1221 27.1803 20.1956C27.1033 20.0748 26.9979 19.9743 26.8733 19.9027C26.7487 19.831 26.6085 19.7904 26.4647 19.7842C26.3209 19.778 26.1777 19.8065 26.0473 19.8671C25.9169 19.9277 25.8032 20.0188 25.7159 20.1326C25.8997 20.0563 26.1037 20.0425 26.2961 20.0934C26.4886 20.1443 26.6587 20.257 26.7801 20.4139C26.5433 20.3296 26.2866 20.3169 26.0425 20.3773C25.7984 20.4377 25.5777 20.5687 25.4084 20.7535C25.2824 20.9052 25.2058 21.0913 25.1887 21.2872C25.2425 21.1896 25.3136 21.1024 25.3986 21.0301C25.5509 20.9059 25.728 20.8153 25.9182 20.7643C26.1084 20.7133 26.3074 20.703 26.5019 20.7341C26.2578 20.7765 26.0286 20.8798 25.8357 21.0342C25.6427 21.1887 25.4924 21.3892 25.3986 21.6171C25.2963 21.9325 25.2963 22.2719 25.3986 22.5874V22.5583C25.3934 22.2359 25.496 21.9209 25.6904 21.6627C25.8848 21.4046 26.1598 21.2179 26.4725 21.1319C26.1482 21.3858 25.9224 21.7435 25.8334 22.1442C25.7444 22.5448 25.7978 22.9637 25.9844 23.3296C25.9433 23.0193 25.9831 22.7037 26.1003 22.4131C26.2174 22.1225 26.4078 21.8668 26.6531 21.6705C26.4699 22.008 26.3943 22.3928 26.4361 22.774C26.478 23.1552 26.6354 23.5149 26.8875 23.8051C26.7606 23.4995 26.5897 22.4273 27.1999 22.044C27.3505 23.4094 27.3309 24.7879 27.1413 26.1484C26.6759 25.7757 26.1599 25.4703 25.6085 25.2412L25.4181 25.1781C24.9566 25.0224 24.47 24.9533 23.9829 24.9743C23.4743 24.9986 22.9761 25.1257 22.5185 25.3479L22.3721 25.4255L22.5039 25.3867C22.9794 25.2521 23.4753 25.2028 23.9683 25.2412C24.4658 25.2864 24.9515 25.4177 25.4035 25.6293C26.0334 25.927 26.6183 26.3108 27.1413 26.7694C26.6012 27.2895 26.029 27.7756 25.4279 28.2248C25.4119 28.2389 25.3938 28.2504 25.3742 28.2587C25.3292 28.1974 25.2675 28.15 25.1964 28.1224C25.1252 28.0947 25.0475 28.0879 24.9726 28.1027C24.8976 28.1175 24.8286 28.1533 24.7735 28.2059C24.7183 28.2585 24.6794 28.3257 24.6615 28.3995C24.6466 28.4582 24.6459 28.5196 24.6595 28.5786C24.6731 28.6377 24.7006 28.6926 24.7396 28.7391C24.8266 28.8297 24.9415 28.889 25.0662 28.9075C25.1908 28.926 25.3181 28.9026 25.4279 28.8409C25.9161 28.6324 26.5555 27.9677 27.3219 27.2691L27.5172 27.0945L27.7125 27.2691C28.0591 27.5845 28.3812 27.8949 28.6888 28.1569C28.8107 28.2685 28.9231 28.3655 29.0353 28.4577C29.1857 28.5846 29.3494 28.6952 29.5235 28.7876C29.6331 28.8722 29.7679 28.9181 29.9067 28.9181C30.0455 28.9181 30.1803 28.8722 30.2899 28.7876L30.3241 28.7536C30.3593 28.7051 30.3844 28.6501 30.3978 28.5917C30.4112 28.5334 30.4127 28.473 30.4022 28.414C30.3836 28.3388 30.3448 28.2701 30.2899 28.2151C30.248 28.1769 30.1984 28.1478 30.1444 28.1299C30.0904 28.112 30.0332 28.1055 29.9766 28.1111C29.9199 28.1165 29.8651 28.1338 29.8156 28.1617C29.7662 28.1898 29.7231 28.2277 29.6895 28.2734L29.4893 28.152C29.3186 28.0329 29.1556 27.9033 29.0012 27.7639L28.6546 27.4583L27.8833 26.7645C28.1273 26.5607 28.3714 26.3667 28.6546 26.1824L29.0012 25.964C29.1573 25.8718 29.3184 25.7845 29.4893 25.7069C29.7363 25.5891 29.9926 25.4917 30.2557 25.4158C30.8298 25.2514 31.4335 25.2165 32.0228 25.3139C32.2364 25.3451 32.447 25.3938 32.6525 25.4595"
                    fill="white" />
                  <path d="M27.5064 34.7061L26.3467 35.8587L27.5064 37.0113L28.6663 35.8587L27.5064 34.7061Z"
                    fill="white" />
                  <path d="M18.175 28.1006L17.7539 29.3878L19.0491 29.8063L19.4702 28.5191L18.175 28.1006Z"
                    fill="white" />
                  <path d="M21.9362 16.8193L21.7598 17.9262L22.8735 18.1015L23.0499 16.9947L21.9362 16.8193Z"
                    fill="white" />
                  <path d="M36.1919 23.6494L35.3945 24.4418L36.1919 25.2343L36.9893 24.4418L36.1919 23.6494Z"
                    fill="white" />
                  <path d="M35.5255 21.0293L35.0137 22.028L36.0185 22.5366L36.5303 21.5379L35.5255 21.0293Z"
                    fill="white" />
                  <path d="M22.8725 30.791L21.7588 30.9663L21.9352 32.0732L23.0489 31.8979L22.8725 30.791Z"
                    fill="white" />
                  <path d="M33.0845 16.8193L31.9707 16.9947L32.1471 18.1015L33.2609 17.9262L33.0845 16.8193Z"
                    fill="white" />
                  <path d="M25.0732 31.9004L24.0684 32.409L24.5802 33.4076L25.585 32.899L25.0732 31.9004Z"
                    fill="white" />
                  <path d="M27.5083 15.0195L26.7109 15.812L27.5083 16.6044L28.3057 15.812L27.5083 15.0195Z"
                    fill="white" />
                  <path d="M26.2258 16.3818L25.6777 17.1315L26.432 17.6762L26.9801 16.9267L26.2258 16.3818Z"
                    fill="white" />
                  <path d="M28.5912 31.2129L28.043 31.9625L28.7972 32.5073L29.3454 31.7577L28.5912 31.2129Z"
                    fill="white" />
                  <path d="M21.0792 20.4551L20.1924 20.7413L20.4804 21.6226L21.3672 21.3364L21.0792 20.4551Z"
                    fill="white" />
                  <path d="M34.543 27.2695L33.6562 27.5557L33.9442 28.4371L34.8309 28.1509L34.543 27.2695Z"
                    fill="white" />
                  <path d="M19.9476 24.9697L19.3994 25.7193L20.1536 26.2641L20.7018 25.5145L19.9476 24.9697Z"
                    fill="white" />
                  <path d="M38.7895 26.874L37.3281 27.6141L38.0727 29.0665L39.5341 28.3264L38.7895 26.874Z"
                    fill="white" />
                  <path d="M21.4413 32.7441L19.8213 32.9991L20.0779 34.6091L21.6978 34.3542L21.4413 32.7441Z"
                    fill="white" />
                  <path d="M34.9413 14.2754L33.3213 14.5303L33.5778 16.1404L35.1978 15.8854L34.9413 14.2754Z"
                    fill="white" />
                  <path d="M17.4986 25.0557L16.6982 26.1509L17.8002 26.9463L18.6005 25.8511L17.4986 25.0557Z"
                    fill="white" />
                  <path d="M24.5811 15.4834L24.0693 16.482L25.0741 16.9906L25.5859 15.992L24.5811 15.4834Z"
                    fill="white" />
                  <path d="M19.497 21.0205L18.4922 21.5292L19.004 22.5278L20.0088 22.0192L19.497 21.0205Z"
                    fill="white" />
                  <path d="M27.5113 32.2832L26.7139 33.0757L27.5113 33.8681L28.3086 33.0757L27.5113 32.2832Z"
                    fill="white" />
                  <path d="M33.9423 20.4502L33.6543 21.3315L34.5411 21.6177L34.8291 20.7364L33.9423 20.4502Z"
                    fill="white" />
                  <path d="M22.6365 29.2871H21.7041V30.2137H22.6365V29.2871Z" fill="white" />
                  <path d="M16.9419 19.8193L15.4805 20.5594L16.2251 22.0119L17.6865 21.2718L16.9419 19.8193Z"
                    fill="white" />
                  <path d="M16.2241 26.8779L15.4795 28.3304L16.9409 29.0705L17.6855 27.618L16.2241 26.8779Z"
                    fill="white" />
                  <path d="M22.5371 14.7471L22.1162 16.0344L23.4115 16.4527L23.8324 15.1653L22.5371 14.7471Z"
                    fill="white" />
                  <path d="M31.6103 32.4414L31.1895 33.7287L32.4847 34.147L32.9056 32.8597L31.6103 32.4414Z"
                    fill="white" />
                  <path d="M36.848 28.1006L35.5527 28.5188L35.9736 29.8062L37.2689 29.3878L36.848 28.1006Z"
                    fill="white" />
                  <path d="M37.5277 25.0527L36.4258 25.8481L37.2261 26.9433L38.3281 26.1479L37.5277 25.0527Z"
                    fill="white" />
                  <path d="M35.9736 19.0869L35.5527 20.3742L36.848 20.7926L37.2689 19.5053L35.9736 19.0869Z"
                    fill="white" />
                  <path d="M35.2545 16.752H33.8926V18.1055H35.2545V16.752Z" fill="white" />
                  <path d="M23.4218 32.3643L22.1279 32.7839L22.5501 34.0698L23.8439 33.6501L23.4218 32.3643Z"
                    fill="white" />
                  <path d="M29.0467 33.3691L28.2432 34.4655L29.3464 35.2641L30.1499 34.1677L29.0467 33.3691Z"
                    fill="white" />
                  <path d="M19.004 26.3564L18.4922 27.355L19.497 27.8637L20.0088 26.865L19.004 26.3564Z" fill="white" />
                  <path d="M22.6365 18.6729H21.7041V19.5995H22.6365V18.6729Z" fill="white" />
                  <path d="M20.1516 22.6201L19.3975 23.1649L19.9456 23.9145L20.6998 23.3697L20.1516 22.6201Z"
                    fill="white" />
                  <path d="M31.2403 17.1729L30.3535 17.459L30.6415 18.3404L31.5283 18.0542L31.2403 17.1729Z"
                    fill="white" />
                  <path d="M28.7952 16.3818L28.041 16.9266L28.5892 17.6761L29.3434 17.1314L28.7952 16.3818Z"
                    fill="white" />
                  <path d="M33.1466 27.8418L32.3848 27.962L32.5057 28.719L33.2675 28.5988L33.1466 27.8418Z"
                    fill="white" />
                  <path d="M34.0776 23.9043L33.5322 24.4463L34.0776 24.9883L34.6229 24.4463L34.0776 23.9043Z"
                    fill="white" />
                  <path d="M38.0718 19.8203L37.3271 21.2727L38.7886 22.0128L39.5332 20.5603L38.0718 19.8203Z"
                    fill="white" />
                  <path d="M35.2545 30.7861H33.8926V32.1397H35.2545V30.7861Z" fill="white" />
                  <path d="M19.0482 19.0898L17.7529 19.5081L18.1738 20.7954L19.4691 20.3772L19.0482 19.0898Z"
                    fill="white" />
                  <path d="M32.4799 14.749L31.1846 15.1674L31.6054 16.4546L32.9007 16.0363L32.4799 14.749Z"
                    fill="white" />
                  <path d="M25.8914 13.7109L25.0879 14.8073L26.1911 15.6059L26.9946 14.5096L25.8914 13.7109Z"
                    fill="white" />
                  <path d="M36.0175 26.3555L35.0127 26.8641L35.5244 27.8627L36.5292 27.3541L36.0175 26.3555Z"
                    fill="white" />
                  <path d="M18.8247 23.6484L18.0273 24.4409L18.8247 25.2334L19.6221 24.4409L18.8247 23.6484Z"
                    fill="white" />
                  <path d="M35.0715 24.9727L34.3174 25.5175L34.8655 26.267L35.6197 25.7223L35.0715 24.9727Z"
                    fill="white" />
                  <path d="M24.377 30.5479L23.4902 30.834L23.7782 31.7154L24.6649 31.4292L24.377 30.5479Z"
                    fill="white" />
                  <path d="M27.5092 30.4336L26.9639 30.9757L27.5092 31.5176L28.0546 30.9757L27.5092 30.4336Z"
                    fill="white" />
                  <path d="M23.3293 18.7314L23.209 19.4886L23.9708 19.6082L24.0911 18.851L23.3293 18.7314Z"
                    fill="white" />
                  <path d="M21.0946 25.9463L20.7441 26.6291L21.4313 26.9774L21.7816 26.2946L21.0946 25.9463Z"
                    fill="white" />
                  <path d="M21.1286 16.752H19.7666V18.1055H21.1286V16.752Z" fill="white" />
                  <path d="M29.2201 13.6943L28.1182 14.4897L28.9185 15.585L30.0204 14.7896L29.2201 13.6943Z"
                    fill="white" />
                  <path d="M29.9483 31.9062L29.4365 32.9049L30.4413 33.4135L30.9531 32.4149L29.9483 31.9062Z"
                    fill="white" />
                  <path d="M20.0114 28.8789L19.835 29.9858L20.9487 30.1611L21.1251 29.0542L20.0114 28.8789Z"
                    fill="white" />
                  <path d="M34.0719 18.7266L33.8955 19.8334L35.0093 20.0088L35.1857 18.9019L34.0719 18.7266Z"
                    fill="white" />
                  <path d="M33.3171 29.2871H32.3848V30.2137H33.3171V29.2871Z" fill="white" />
                  <path d="M34.8655 22.623L34.3174 23.3726L35.0715 23.9174L35.6197 23.1679L34.8655 22.623Z"
                    fill="white" />
                  <path d="M26.4321 31.2178L25.6777 31.7623L26.2256 32.5121L26.98 31.9675L26.4321 31.2178Z"
                    fill="white" />
                  <path d="M25.3084 17.7266L24.958 18.4094L25.6452 18.7577L25.9955 18.0748L25.3084 17.7266Z"
                    fill="white" />
                  <path d="M29.3689 30.1387L29.0186 30.8215L29.7056 31.1697L30.0561 30.4869L29.3689 30.1387Z"
                    fill="white" />
                  <path d="M31.0491 29.2881L30.9287 30.0452L31.6905 30.1649L31.8109 29.4078L31.0491 29.2881Z"
                    fill="white" />
                  <path d="M21.4332 21.9131L20.7461 22.2614L21.0964 22.9442L21.7836 22.5959L21.4332 21.9131Z"
                    fill="white" />
                  <path d="M33.9244 25.9473L33.2373 26.2955L33.5877 26.9783L34.2748 26.6301L33.9244 25.9473Z"
                    fill="white" />
                  <path d="M21.8772 27.8408L21.7568 28.5979L22.5186 28.7176L22.6391 27.9605L21.8772 27.8408Z"
                    fill="white" />
                  <path d="M31.6925 18.7256L30.9307 18.8453L31.0511 19.6024L31.8129 19.4828L31.6925 18.7256Z"
                    fill="white" />
                  <path d="M25.65 30.1338L24.9629 30.4821L25.3133 31.1649L26.0004 30.8166L25.65 30.1338Z"
                    fill="white" />
                  <path d="M20.0749 14.2803L19.8184 15.8903L21.4383 16.1453L21.6949 14.5352L20.0749 14.2803Z"
                    fill="white" />
                  <path d="M33.576 32.7529L33.3193 34.363L34.9394 34.6179L35.196 33.008L33.576 32.7529Z" fill="white" />
                  <path d="M27.5055 11.874L26.3457 13.0267L27.5055 14.1793L28.6653 13.0267L27.5055 11.874Z"
                    fill="white" />
                  <path d="M17.7953 21.9453L16.6934 22.7407L17.4937 23.8359L18.5957 23.0405L17.7953 21.9453Z"
                    fill="white" />
                  <path d="M37.2222 21.9453L36.4219 23.0405L37.5238 23.8359L38.3242 22.7408L37.2222 21.9453Z"
                    fill="white" />
                  <path d="M21.1286 30.7861H19.7666V32.1397H21.1286V30.7861Z" fill="white" />
                  <path d="M26.102 33.3057L25 34.1011L25.8004 35.1963L26.9023 34.4009L26.102 33.3057Z" fill="white" />
                  <path d="M32.1471 30.7881L31.9707 31.8949L33.0845 32.0703L33.2609 30.9634L32.1471 30.7881Z"
                    fill="white" />
                  <path d="M20.9545 18.7354L19.8408 18.9107L20.0172 20.0175L21.1309 19.8422L20.9545 18.7354Z"
                    fill="white" />
                  <path d="M35.0073 28.8779L33.8936 29.0533L34.07 30.1601L35.1837 29.9848L35.0073 28.8779Z"
                    fill="white" />
                  <path d="M30.4423 15.4766L29.4375 15.9852L29.9493 16.9838L30.9541 16.4752L30.4423 15.4766Z"
                    fill="white" />
                  <path d="M23.784 17.1768L23.4961 18.0581L24.3828 18.3443L24.6708 17.4629L23.784 17.1768Z"
                    fill="white" />
                  <path d="M30.6385 30.5537L30.3506 31.435L31.2374 31.7213L31.5254 30.8399L30.6385 30.5537Z"
                    fill="white" />
                  <path d="M20.4813 27.2725L20.1934 28.1538L21.0802 28.44L21.3681 27.5587L20.4813 27.2725Z"
                    fill="white" />
                  <path d="M33.3171 18.6729H32.3848V19.5995H33.3171V18.6729Z" fill="white" />
                  <path d="M27.5092 17.374L26.9639 17.916L27.5092 18.4581L28.0546 17.916L27.5092 17.374Z"
                    fill="white" />
                  <path d="M22.5177 20.1689L21.7559 20.2886L21.8763 21.0457L22.6381 20.9261L22.5177 20.1689Z"
                    fill="white" />
                  <path d="M20.9419 23.9033L20.3965 24.4453L20.9419 24.9874L21.4873 24.4453L20.9419 23.9033Z"
                    fill="white" />
                  <path d="M33.5887 21.9121L33.2383 22.595L33.9254 22.9432L34.2758 22.2603L33.5887 21.9121Z"
                    fill="white" />
                  <path d="M32.5012 20.1699L32.3809 20.927L33.1427 21.0466L33.2631 20.2895L32.5012 20.1699Z"
                    fill="white" />
                  <path d="M23.9708 29.2832L23.209 29.4029L23.3293 30.16L24.0912 30.0403L23.9708 29.2832Z"
                    fill="white" />
                  <path d="M29.7056 17.7188L29.0186 18.067L29.3689 18.7498L30.0561 18.4016L29.7056 17.7188Z"
                    fill="white" />
                </g>
              </svg>